<svg xmlns="http://www.w3.org/2000/svg" viewBox="-1000 5000 45000 7500" width="35000" height="6100">
<!--  <defs>-->
<!--    <style bx:fonts="Comfortaa">@import url(https://fonts.googleapis.com/css2?family=Comfortaa%3Aital%2Cwght%400%2C300..700&amp;display=swap);</style>-->
<!--  </defs>-->
  <g transform="matrix(0.947754, 0, 0, 0.947754, -2984.780806, 673.71583)" style="">
    <g transform="matrix(0.862226, 0, 0, 0.722995, 1777.89761, -4425.863835)" style="">
      <polyline style="stroke: rgb(0, 0, 0); fill: none; stroke-width: 250px;" points="1191.386 21863.889 6968.19 20829.236 3821.126 19794.584"></polyline>
      <circle style="" transform="matrix(53.888092, 0, 0, 30.585106, -10663.995276, -5261.898028)" cx="322.8" cy="858" r="14.8"></circle>
      <circle style="" transform="matrix(44.152374, 0, 0, 25.059433, -10265.007965, -1612.239892)" cx="322.8" cy="858" r="14.8"></circle>
      <circle style="" transform="matrix(61.305729, 0, 0, 34.795113, -18369.386992, -7932.128048)" cx="322.8" cy="858" r="14.8"></circle>
    </g>
    <g transform="matrix(6.965114, 0, 0, 6.965114, 6318.733493, 8001.360471)" style="">
      <path d="M197.849,0C122.131,0,60.531,61.609,60.531,137.329c0,72.887,124.591,243.177,129.896,250.388l4.951,6.738
		c0.579,0.792,1.501,1.255,2.471,1.255c0.985,0,1.901-0.463,2.486-1.255l4.948-6.738c5.308-7.211,129.896-177.501,129.896-250.388
		C335.179,61.609,273.569,0,197.849,0z M197.849,88.138c27.13,0,49.191,22.062,49.191,49.191c0,27.115-22.062,49.191-49.191,49.191
		c-27.114,0-49.191-22.076-49.191-49.191C148.658,110.2,170.734,88.138,197.849,88.138z" style="fill: rgb(91, 91, 91);"></path>
    </g>
    <path d="M 9956.35 9775.86 L 9644.18 9437.03 L 11916.2 7384.15 C 11969.3 7335.44 12024.7 7312.16 12082.3 7314.39 C 12139.9 7316.6 12193 7344.29 12241.7 7397.43 C 12290.5 7450.59 12313.7 7507.06 12311.4 7566.84 C 12309.2 7626.64 12281.5 7678.69 12228.5 7722.98 L 9956.35 9775.86 Z M 9790.27 10991.6 C 9714.96 10991.6 9654.07 10968.4 9607.6 10921.9 C 9561.04 10875.3 9537.72 10814.4 9537.72 10739.2 L 9537.72 6055.43 C 9537.72 5980.14 9561.04 5919.23 9607.6 5872.72 C 9654.07 5826.23 9714.96 5802.96 9790.27 5802.96 C 9865.58 5802.96 9926.38 5826.23 9972.94 5872.72 C 10019.4 5919.23 10042.8 5980.14 10042.8 6055.43 L 10042.8 10739.2 C 10042.8 10814.4 10019.4 10875.3 9972.94 10921.9 C 9926.38 10968.4 9865.58 10991.6 9790.27 10991.6 Z M 12248.3 10958.5 C 12190.8 11007.1 12131 11028.2 12069 11021.4 C 12006.9 11014.9 11953.8 10982.8 11909.5 10925.2 L 10428 9104.85 L 10786.7 8785.95 L 12281.5 10626.2 C 12325.9 10679.4 12345.8 10735.8 12341.4 10795.7 C 12337 10855.4 12305.9 10909.7 12248.3 10958.5 Z M 18221.2 10991.6 C 18145.9 10991.6 18083.9 10968.4 18035.3 10921.9 C 17986.5 10875.3 17962.2 10814.4 17962.2 10739.2 L 17962.2 8825.8 C 17962.2 8511.35 17880.3 8262.22 17716.3 8078.41 C 17552.4 7894.6 17342.1 7802.7 17085.2 7802.7 C 16810.7 7802.7 16585.8 7894.6 16410.7 8078.41 C 16235.8 8262.22 16150.6 8506.92 16155.1 8812.52 L 15696.6 8812.52 C 15701.1 8515.77 15765.2 8254.46 15889.3 8028.58 C 16013.3 7802.7 16183.9 7627.74 16400.8 7503.73 C 16617.8 7379.72 16863.7 7317.73 17138.3 7317.73 C 17399.7 7317.73 17631.1 7379.72 17832.6 7503.73 C 18034.1 7627.74 18191.3 7802.7 18304.2 8028.58 C 18417.2 8254.46 18473.7 8520.2 18473.7 8825.8 L 18473.7 10739.2 C 18473.7 10814.4 18450.4 10875.3 18403.8 10921.9 C 18357.4 10968.4 18296.5 10991.6 18221.2 10991.6 Z M 13570.6 10991.6 C 13490.9 10991.6 13427.8 10968.4 13381.3 10921.9 C 13334.7 10875.3 13311.6 10814.4 13311.6 10739.2 L 13311.6 7616.68 C 13311.6 7541.37 13334.7 7479.37 13381.3 7430.65 C 13427.8 7381.93 13490.9 7357.57 13570.6 7357.57 C 13646 7357.57 13706.8 7381.93 13753.3 7430.65 C 13799.9 7479.37 13823.1 7541.37 13823.1 7616.68 L 13823.1 10739.2 C 13823.1 10814.4 13799.9 10875.3 13753.3 10921.9 C 13706.8 10968.4 13646 10991.6 13570.6 10991.6 Z M 15902.5 10991.6 C 15827.3 10991.6 15765.2 10968.4 15716.5 10921.9 C 15667.8 10875.3 15643.6 10814.4 15643.6 10739.2 L 15643.6 8825.8 C 15643.6 8511.35 15561.5 8262.22 15397.7 8078.41 C 15233.8 7894.6 15023.4 7802.7 14766.6 7802.7 C 14491.9 7802.7 14266.2 7892.38 14089 8071.77 C 13911.8 8251.13 13823.1 8484.77 13823.1 8772.65 L 13457.7 8772.65 C 13466.6 8489.2 13529.7 8237.85 13647.1 8018.61 C 13764.3 7799.38 13925 7627.74 14128.8 7503.73 C 14332.5 7379.72 14562.8 7317.73 14819.7 7317.73 C 15081 7317.73 15312.5 7379.72 15513.9 7503.73 C 15715.4 7627.74 15872.7 7802.7 15985.6 8028.58 C 16098.7 8254.46 16155.1 8520.2 16155.1 8825.8 L 16155.1 10739.2 C 16155.1 10814.4 16131.7 10875.3 16085.2 10921.9 C 16038.8 10968.4 15977.8 10991.6 15902.5 10991.6 Z M 19577 8174.74 C 19470.6 8174.74 19378.7 8138.2 19301.2 8065.12 C 19223.7 7992.03 19185 7900.13 19185 7789.41 C 19185 7678.69 19222.6 7585.66 19297.9 7510.37 C 19373.2 7435.07 19466.3 7397.43 19577 7397.43 C 19683.3 7397.43 19772.9 7436.19 19846 7513.7 C 19919.2 7591.21 19955.6 7683.1 19955.6 7789.41 C 19955.6 7895.72 19919.2 7986.5 19846 8061.79 C 19772.9 8137.09 19683.3 8174.74 19577 8174.74 Z M 19590.2 11098 C 19483.9 11098 19393.1 11060.3 19317.8 10985 C 19242.5 10909.7 19204.9 10818.9 19204.9 10712.6 C 19204.9 10601.9 19243.8 10508.9 19321.1 10433.5 C 19398.6 10358.2 19488.3 10320.6 19590.2 10320.6 C 19696.6 10320.6 19787.4 10359.4 19862.6 10436.9 C 19938 10514.4 19975.6 10606.3 19975.6 10712.6 C 19975.6 10814.4 19939 10904.2 19865.9 10981.6 C 19792.9 11059.2 19701 11098 19590.2 11098 Z M 22507.6 11058.1 C 22224.1 11058.1 21961.7 11017.1 21720.2 10935.1 C 21478.8 10853.3 21269.7 10737 21092.5 10586.3 C 20915.3 10435.8 20780.2 10260.9 20687.2 10061.5 C 20651.7 9990.65 20650.6 9925.33 20683.9 9865.53 C 20717.1 9805.74 20773.6 9764.78 20853.3 9742.63 C 20915.3 9724.91 20976.2 9731.57 21036 9762.56 C 21095.8 9793.57 21141.1 9840.06 21172.2 9902.08 C 21238.6 10030.5 21336 10145.7 21464.6 10247.6 C 21593 10349.4 21745.7 10428.1 21922.9 10483.3 C 22100.1 10538.8 22295 10566.4 22507.6 10566.4 C 22742.2 10566.4 22950.4 10527.7 23132 10450.2 C 23313.7 10372.7 23456.6 10259.6 23560.5 10111.4 C 23664.7 9962.97 23716.7 9782.49 23716.7 9569.9 C 23716.7 9299.72 23617 9067.2 23417.6 8872.32 C 23218.3 8677.45 22906.2 8553.44 22481 8500.27 C 21962.7 8438.27 21557.5 8277.72 21265.2 8018.61 C 20972.9 7759.51 20826.7 7441.73 20826.7 7065.26 C 20826.7 6795.09 20898.8 6560.33 21042.6 6361.04 C 21186.6 6161.72 21384.8 6007.81 21637.2 5899.3 C 21889.6 5790.79 22179.8 5736.53 22507.6 5736.53 C 22751.1 5736.53 22972.6 5775.28 23171.9 5852.79 C 23371.3 5930.3 23545.1 6032.18 23693.4 6158.41 C 23841.8 6284.63 23962.5 6423.04 24055.5 6573.63 C 24099.8 6644.49 24114.1 6713.14 24098.6 6779.57 C 24083.2 6846.01 24044.4 6896.94 23982.3 6932.38 C 23916 6963.39 23848.4 6967.81 23779.8 6945.66 C 23711.2 6923.52 23659.1 6881.45 23623.6 6819.44 C 23557.1 6717.57 23474.1 6621.25 23374.5 6530.44 C 23274.8 6439.65 23154.1 6367.68 23012.4 6314.52 C 22870.8 6261.37 22700.2 6232.59 22500.9 6228.15 C 22150.9 6228.15 21869.8 6302.35 21657.1 6450.72 C 21444.5 6599.09 21338.2 6815.02 21338.2 7098.47 C 21338.2 7249.06 21378.2 7387.47 21457.8 7513.7 C 21537.5 7639.93 21669.3 7748.43 21853.2 7839.24 C 22037 7930.03 22283.9 7997.57 22593.9 8041.86 C 23147.6 8121.59 23558.4 8290.99 23826.2 8550.1 C 24094.3 8809.21 24228.2 9146.91 24228.2 9563.25 C 24228.2 9802.42 24185.1 10015 24098.6 10201 C 24012.2 10387 23890.5 10543.2 23733.3 10669.5 C 23576.1 10795.7 23392.3 10892 23181.9 10958.5 C 22971.4 11024.9 22746.7 11058.1 22507.6 11058.1 Z M 26866.4 11024.9 C 26507.7 11024.9 26190 10946.2 25913.1 10789 C 25636.4 10631.7 25419.2 10413.7 25262.1 10134.6 C 25104.8 9855.57 25026.1 9536.68 25026.1 9177.92 C 25026.1 8814.73 25100.4 8494.73 25248.7 8217.93 C 25397.2 7941.1 25602 7722.98 25863.3 7563.53 C 26124.5 7404.07 26425.8 7324.36 26766.8 7324.36 C 27103.4 7324.36 27396.9 7400.76 27647 7553.56 C 27897.3 7706.37 28091.1 7917.86 28228.4 8188.03 C 28365.6 8458.2 28434.3 8766.02 28434.3 9111.48 C 28434.3 9182.34 28412.2 9238.82 28367.9 9280.9 C 28323.7 9322.98 28266 9344.01 28195.1 9344.01 L 25371.6 9344.01 L 25371.6 8918.82 L 28248.4 8918.82 L 27962.7 9124.77 C 27967 8867.88 27920.5 8637.58 27823.1 8433.84 C 27725.7 8230.1 27587.2 8070.65 27407.9 7955.5 C 27228.6 7840.35 27014.8 7782.77 26766.8 7782.77 C 26514.3 7782.77 26292.9 7842.56 26102.4 7962.15 C 25912 8081.73 25764.7 8246.71 25660.6 8457.1 C 25556.6 8667.48 25504.5 8907.75 25504.5 9177.92 C 25504.5 9448.09 25563.2 9687.27 25680.5 9895.44 C 25798 10103.6 25958.5 10267.6 26162.2 10387 C 26365.9 10506.6 26600.7 10566.4 26866.4 10566.4 C 27026 10566.4 27186.4 10538.8 27348.1 10483.3 C 27509.8 10428.1 27639.3 10358.2 27736.8 10274.1 C 27785.5 10234.3 27840.8 10213.2 27902.9 10211 C 27964.9 10208.8 28017.9 10225.4 28062.3 10260.9 C 28119.8 10313.9 28149.8 10371.6 28152.1 10433.5 C 28154.2 10495.6 28128.8 10548.7 28075.6 10592.9 C 27929.5 10717 27743.4 10820 27517.5 10902 C 27291.6 10983.9 27074.6 11024.9 26866.4 11024.9 Z M 29484.8 8752.74 C 29498.2 8478.12 29570.1 8232.31 29700.8 8015.28 C 29831.4 7798.27 30002 7627.74 30212.4 7503.73 C 30422.7 7379.72 30656.2 7317.73 30913.3 7317.73 C 31116.9 7317.73 31274.3 7346.5 31385 7404.07 C 31495.6 7461.65 31537.7 7545.81 31511.2 7656.53 C 31493.4 7722.98 31463.5 7767.26 31421.4 7789.41 C 31379.4 7811.56 31328.5 7820.42 31268.7 7815.98 C 31208.9 7811.56 31141.4 7807.13 31066 7802.7 C 30818 7780.55 30597.6 7806.01 30405 7879.11 C 30212.3 7952.18 30059.4 8064 29946.5 8214.6 C 29833.7 8365.19 29777.2 8544.56 29777.2 8752.74 L 29484.8 8752.74 Z M 29524.7 10991.6 C 29445.1 10991.6 29383 10969.4 29338.6 10925.2 C 29294.4 10881 29272.3 10818.9 29272.3 10739.2 L 29272.3 7610.03 C 29272.3 7530.3 29294.4 7468.3 29338.6 7424 C 29383 7379.72 29445.1 7357.57 29524.7 7357.57 C 29604.3 7357.57 29666.5 7379.72 29710.8 7424 C 29755.2 7468.3 29777.2 7530.3 29777.2 7610.03 L 29777.2 10739.2 C 29777.2 10818.9 29755.2 10881 29710.8 10925.2 C 29666.5 10969.4 29604.3 10991.6 29524.7 10991.6 Z M 33531.8 10991.6 C 33425.4 10991.6 33345.8 10934.1 33292.6 10818.9 L 31817.7 7689.75 C 31791.1 7632.18 31789 7574.6 31811.1 7517.02 C 31833.2 7459.44 31877.5 7415.15 31944 7384.15 C 32006 7353.15 32065.7 7348.71 32123.4 7370.86 C 32180.8 7393.01 32225.2 7432.86 32256.2 7490.45 L 33671.3 10553.1 L 33398.9 10553.1 L 34794 7490.45 C 34820.7 7428.44 34866 7387.47 34930.2 7367.53 C 34994.5 7347.61 35057.6 7350.92 35119.6 7377.5 C 35181.7 7408.5 35223.7 7453.9 35245.9 7513.7 C 35267.9 7573.49 35265.8 7629.96 35239.1 7683.1 L 33784.3 10818.9 C 33731.1 10934.1 33646.9 10991.6 33531.8 10991.6 Z M 36303.3 10991.6 C 36223.5 10991.6 36160.4 10968.4 36113.9 10921.9 C 36067.5 10875.3 36044.2 10812.3 36044.2 10732.5 L 36044.2 7616.68 C 36044.2 7536.95 36067.5 7473.83 36113.9 7427.33 C 36160.4 7380.82 36223.5 7357.57 36303.3 7357.57 C 36378.5 7357.57 36439.5 7380.82 36486 7427.33 C 36532.5 7473.83 36555.7 7536.95 36555.7 7616.68 L 36555.7 10732.5 C 36555.7 10812.3 36532.5 10875.3 36486 10921.9 C 36439.5 10968.4 36378.5 10991.6 36303.3 10991.6 Z M 36296.6 6666.63 C 36199.2 6666.63 36115 6631.2 36044.2 6560.35 C 35973.3 6489.47 35937.9 6403.11 35937.9 6301.24 C 35937.9 6190.5 35974.5 6103.05 36047.5 6038.82 C 36120.6 5974.59 36205.9 5942.47 36303.3 5942.47 C 36396.3 5942.47 36479.3 5974.59 36552.4 6038.82 C 36625.5 6103.05 36662.1 6190.5 36662.1 6301.24 C 36662.1 6403.11 36626.7 6489.47 36555.7 6560.35 C 36484.9 6631.2 36398.5 6666.63 36296.6 6666.63 Z M 39452.9 11024.9 C 39103 11024.9 38791.8 10944 38519.4 10782.4 C 38246.9 10620.6 38032.2 10400.4 37875.1 10121.3 C 37717.8 9842.29 37639.2 9527.82 37639.2 9177.92 C 37639.2 8823.6 37714.5 8506.92 37865 8227.89 C 38015.6 7948.85 38221.6 7728.52 38482.9 7566.84 C 38744.1 7405.18 39045.4 7324.36 39386.5 7324.36 C 39656.6 7324.36 39905.7 7377.5 40133.8 7483.8 C 40361.9 7590.1 40562.3 7749.54 40735 7962.15 C 40783.8 8015.28 40801.6 8071.77 40788.2 8131.55 C 40774.9 8191.36 40737.3 8243.39 40675.3 8287.68 C 40626.6 8323.11 40572.4 8335.29 40512.5 8324.22 C 40452.8 8313.15 40400.8 8281.03 40356.5 8227.89 C 40099.4 7935.57 39776.2 7789.41 39386.5 7789.41 C 39138.4 7789.41 38920.3 7849.2 38732.1 7968.78 C 38543.9 8088.37 38397.7 8252.25 38293.5 8460.41 C 38189.5 8668.57 38137.4 8907.75 38137.4 9177.92 C 38137.4 9443.67 38192.8 9680.62 38303.4 9888.78 C 38414.3 10097 38569.2 10260.9 38768.6 10380.5 C 38967.8 10500 39195.9 10559.8 39452.9 10559.8 C 39625.6 10559.8 39784 10536.5 39927.8 10490 C 40071.8 10443.4 40199.2 10371.6 40309.9 10274.1 C 40363.1 10229.9 40418.4 10205.5 40476.1 10201 C 40533.6 10196.6 40586.6 10214.3 40635.5 10254.2 C 40688.5 10302.9 40718.4 10358.2 40725.1 10420.4 C 40731.8 10482.4 40710.8 10535.3 40662 10579.7 C 40338.7 10876.5 39935.6 11024.9 39452.9 11024.9 Z M 43406.7 11024.9 C 43048.1 11024.9 42730.2 10946.2 42453.5 10789 C 42176.6 10631.7 41959.6 10413.7 41802.3 10134.6 C 41645 9855.57 41566.5 9536.68 41566.5 9177.92 C 41566.5 8814.73 41640.7 8494.73 41789 8217.93 C 41937.5 7941.1 42142.3 7722.98 42403.6 7563.53 C 42664.9 7404.07 42966 7324.36 43307.1 7324.36 C 43643.7 7324.36 43937.2 7400.76 44187.4 7553.56 C 44437.5 7706.37 44631.5 7917.86 44768.7 8188.03 C 44906.1 8458.2 44974.6 8766.02 44974.6 9111.48 C 44974.6 9182.34 44952.5 9238.82 44908.2 9280.9 C 44863.9 9322.98 44806.3 9344.01 44735.5 9344.01 L 41912 9344.01 L 41912 8918.82 L 44788.6 8918.82 L 44503 9124.77 C 44507.4 8867.88 44460.8 8637.58 44363.5 8433.84 C 44266.1 8230.1 44127.6 8070.65 43948.2 7955.5 C 43768.9 7840.35 43555.1 7782.77 43307.1 7782.77 C 43054.6 7782.77 42833.2 7842.56 42642.7 7962.15 C 42452.3 8081.73 42305 8246.71 42201 8457.1 C 42096.9 8667.48 42044.9 8907.75 42044.9 9177.92 C 42044.9 9448.09 42103.6 9687.27 42220.8 9895.44 C 42338.3 10103.6 42498.9 10267.6 42702.5 10387 C 42906.3 10506.6 43141 10566.4 43406.7 10566.4 C 43566.2 10566.4 43726.7 10538.8 43888.4 10483.3 C 44050 10428.1 44179.6 10358.2 44277.1 10274.1 C 44325.8 10234.3 44381.2 10213.2 44443.2 10211 C 44505.2 10208.8 44558.3 10225.4 44602.6 10260.9 C 44660.2 10313.9 44690 10371.6 44692.3 10433.5 C 44694.5 10495.6 44669.1 10548.7 44615.9 10592.9 C 44469.8 10717 44283.6 10820 44057.9 10902 C 43831.9 10983.9 43615 11024.9 43406.7 11024.9 Z" style="stroke-linecap: round; stroke-miterlimit: 1; stroke-width: 14px;"></path>
    <g style="" transform="matrix(0.619212, 0, 0, 0.619212, 2536.683143, 1959.099639)">
      <path style="fill: rgb(216, 216, 216); stroke: rgb(0, 0, 0); stroke-width: 400px;" d="M 83.92 5239.74 C 308.357 5238.69 8004.33 5238.64 8015.04 5237.87 C 8284.84 5218.51 8402.43 5410.71 8387.09 5578.06 C 8378 5677.26 8368.68 9843.41 8365.53 9882.46 C 8341.84 10176.3 8256.59 10245.6 8009.9 10240.7 C 7950.98 10239.6 392.455 10244.3 317.912 10240.7 C -72.688 10222.1 -273.91 9996.75 -265.73 9799.41 C -260.67 9676.39 -280.74 5754.26 -257.97 5573.37 C -238.32 5417.65 -75.302 5240.49 83.92 5239.74 Z"></path>
      <text style="fill: rgb(51, 51, 51); font-family: Calibri; font-size: 28.3934px; letter-spacing: 0.9px; line-height: 44.847px; white-space: pre;" transform="matrix(115.488174, 0, 0, 115.837433, 11762.534355, -848480.012643)" x="-94.152" y="7401.5">47,5</text>
    </g>
  </g>
</svg>
