<?xml version="1.0" encoding="utf-8"?>
<svg xmlns="http://www.w3.org/2000/svg" width="2750" height="600" >
<!--  <defs>-->
<!--    <style bx:fonts="Comfortaa">@import url(https://fonts.googleapis.com/css2?family=Comfortaa%3Aital%2Cwght%400%2C300..700&amp;display=swap);</style>-->
<!--  </defs>-->
  <g transform="matrix(0.05897000432014465, 0, 0, 0.05897000432014465, 2.173214944798019, 391.2262326363657)" style="">
    <g transform="matrix(1.022302, 0, 0, 0.857222, 308.141393, -16651.814701)" style="">
      <polyline style="stroke: rgb(0, 0, 0); fill: none; stroke-width: 250px;" points="1191.386 21863.889 6968.19 20829.236 3821.126 19794.584"/>
      <circle style="" transform="matrix(53.888092, 0, 0, 30.585106, -10663.995276, -5261.898028)" cx="322.8" cy="858" r="14.8"/>
      <circle style="" transform="matrix(44.152374, 0, 0, 25.059433, -10265.007965, -1612.239892)" cx="322.8" cy="858" r="14.8"/>
      <circle style="" transform="matrix(61.305729, 0, 0, 34.795113, -18369.386992, -7932.128048)" cx="322.8" cy="858" r="14.8"/>
    </g>
    <g transform="matrix(8.258218, 0, 0, 8.258218, 5692.003503, -1917.422514)" style="">
      <path d="M197.849,0C122.131,0,60.531,61.609,60.531,137.329c0,72.887,124.591,243.177,129.896,250.388l4.951,6.738 c0.579,0.792,1.501,1.255,2.471,1.255c0.985,0,1.901-0.463,2.486-1.255l4.948-6.738c5.308-7.211,129.896-177.501,129.896-250.388 C335.179,61.609,273.569,0,197.849,0z M197.849,88.138c27.13,0,49.191,22.062,49.191,49.191c0,27.115-22.062,49.191-49.191,49.191 c-27.114,0-49.191-22.076-49.191-49.191C148.658,110.2,170.734,88.138,197.849,88.138z" style="fill: rgb(91, 91, 91);"/>
    </g>
    <path d="M 9956.35 561.57 L 9644.18 222.74 L 11916.2 -1830.1 C 11969.3 -1878.8 12024.7 -1902.1 12082.3 -1899.9 C 12139.9 -1897.7 12193 -1870 12241.7 -1816.9 C 12290.5 -1763.7 12313.7 -1707.2 12311.4 -1647.5 C 12309.2 -1587.7 12281.5 -1535.6 12228.5 -1491.3 L 9956.35 561.57 Z M 9790.27 1777.31 C 9714.96 1777.31 9654.07 1754.11 9607.6 1707.61 C 9561.04 1661.01 9537.72 1600.11 9537.72 1524.91 L 9537.72 -3158.9 C 9537.72 -3234.2 9561.04 -3295.1 9607.6 -3341.6 C 9654.07 -3388.1 9714.96 -3411.3 9790.27 -3411.3 C 9865.58 -3411.3 9926.38 -3388.1 9972.94 -3341.6 C 10019.4 -3295.1 10042.8 -3234.2 10042.8 -3158.9 L 10042.8 1524.91 C 10042.8 1600.11 10019.4 1661.01 9972.94 1707.61 C 9926.38 1754.11 9865.58 1777.31 9790.27 1777.31 Z M 12248.3 1744.21 C 12190.8 1792.81 12131 1813.91 12069 1807.11 C 12006.9 1800.61 11953.8 1768.51 11909.5 1710.91 L 10428 -109.44 L 10786.7 -428.34 L 12281.5 1411.91 C 12325.9 1465.11 12345.8 1521.51 12341.4 1581.41 C 12337 1641.11 12305.9 1695.41 12248.3 1744.21 Z M 18221.2 1777.31 C 18145.9 1777.31 18083.9 1754.11 18035.3 1707.61 C 17986.5 1661.01 17962.2 1600.11 17962.2 1524.91 L 17962.2 -388.49 C 17962.2 -702.94 17880.3 -952.07 17716.3 -1135.9 C 17552.4 -1319.7 17342.1 -1411.6 17085.2 -1411.6 C 16810.7 -1411.6 16585.8 -1319.7 16410.7 -1135.9 C 16235.8 -952.07 16150.6 -707.37 16155.1 -401.77 L 15696.6 -401.77 C 15701.1 -698.52 15765.2 -959.83 15889.3 -1185.7 C 16013.3 -1411.6 16183.9 -1586.5 16400.8 -1710.6 C 16617.8 -1834.6 16863.7 -1896.6 17138.3 -1896.6 C 17399.7 -1896.6 17631.1 -1834.6 17832.6 -1710.6 C 18034.1 -1586.5 18191.3 -1411.6 18304.2 -1185.7 C 18417.2 -959.83 18473.7 -694.09 18473.7 -388.49 L 18473.7 1524.91 C 18473.7 1600.11 18450.4 1661.01 18403.8 1707.61 C 18357.4 1754.11 18296.5 1777.31 18221.2 1777.31 Z M 13570.6 1777.31 C 13490.9 1777.31 13427.8 1754.11 13381.3 1707.61 C 13334.7 1661.01 13311.6 1600.11 13311.6 1524.91 L 13311.6 -1597.6 C 13311.6 -1672.9 13334.7 -1734.9 13381.3 -1783.6 C 13427.8 -1832.4 13490.9 -1856.7 13570.6 -1856.7 C 13646 -1856.7 13706.8 -1832.4 13753.3 -1783.6 C 13799.9 -1734.9 13823.1 -1672.9 13823.1 -1597.6 L 13823.1 1524.91 C 13823.1 1600.11 13799.9 1661.01 13753.3 1707.61 C 13706.8 1754.11 13646 1777.31 13570.6 1777.31 Z M 15902.5 1777.31 C 15827.3 1777.31 15765.2 1754.11 15716.5 1707.61 C 15667.8 1661.01 15643.6 1600.11 15643.6 1524.91 L 15643.6 -388.49 C 15643.6 -702.94 15561.5 -952.07 15397.7 -1135.9 C 15233.8 -1319.7 15023.4 -1411.6 14766.6 -1411.6 C 14491.9 -1411.6 14266.2 -1321.9 14089 -1142.5 C 13911.8 -963.16 13823.1 -729.52 13823.1 -441.64 L 13457.7 -441.64 C 13466.6 -725.09 13529.7 -976.44 13647.1 -1195.7 C 13764.3 -1414.9 13925 -1586.5 14128.8 -1710.6 C 14332.5 -1834.6 14562.8 -1896.6 14819.7 -1896.6 C 15081 -1896.6 15312.5 -1834.6 15513.9 -1710.6 C 15715.4 -1586.5 15872.7 -1411.6 15985.6 -1185.7 C 16098.7 -959.83 16155.1 -694.09 16155.1 -388.49 L 16155.1 1524.91 C 16155.1 1600.11 16131.7 1661.01 16085.2 1707.61 C 16038.8 1754.11 15977.8 1777.31 15902.5 1777.31 Z M 19577 -1039.5 C 19470.6 -1039.5 19378.7 -1076.1 19301.2 -1149.2 C 19223.7 -1222.3 19185 -1314.2 19185 -1424.9 C 19185 -1535.6 19222.6 -1628.6 19297.9 -1703.9 C 19373.2 -1779.2 19466.3 -1816.9 19577 -1816.9 C 19683.3 -1816.9 19772.9 -1778.1 19846 -1700.6 C 19919.2 -1623.1 19955.6 -1531.2 19955.6 -1424.9 C 19955.6 -1318.6 19919.2 -1227.8 19846 -1152.5 C 19772.9 -1077.2 19683.3 -1039.5 19577 -1039.5 Z M 19590.2 1883.71 C 19483.9 1883.71 19393.1 1846.01 19317.8 1770.71 C 19242.5 1695.41 19204.9 1604.61 19204.9 1498.31 C 19204.9 1387.61 19243.8 1294.61 19321.1 1219.21 C 19398.6 1143.91 19488.3 1106.31 19590.2 1106.31 C 19696.6 1106.31 19787.4 1145.11 19862.6 1222.61 C 19938 1300.11 19975.6 1392.01 19975.6 1498.31 C 19975.6 1600.11 19939 1689.91 19865.9 1767.31 C 19792.9 1844.91 19701 1883.71 19590.2 1883.71 Z M 22507.6 1843.81 C 22224.1 1843.81 21961.7 1802.81 21720.2 1720.81 C 21478.8 1639.01 21269.7 1522.71 21092.5 1372.01 C 20915.3 1221.51 20780.2 1046.61 20687.2 847.21 C 20651.7 776.36 20650.6 711.04 20683.9 651.24 C 20717.1 591.45 20773.6 550.49 20853.3 528.34 C 20915.3 510.62 20976.2 517.28 21036 548.27 C 21095.8 579.28 21141.1 625.77 21172.2 687.79 C 21238.6 816.21 21336 931.41 21464.6 1033.31 C 21593 1135.11 21745.7 1213.81 21922.9 1269.01 C 22100.1 1324.51 22295 1352.11 22507.6 1352.11 C 22742.2 1352.11 22950.4 1313.41 23132 1235.91 C 23313.7 1158.41 23456.6 1045.31 23560.5 897.11 C 23664.7 748.68 23716.7 568.2 23716.7 355.61 C 23716.7 85.43 23617 -147.09 23417.6 -341.97 C 23218.3 -536.84 22906.2 -660.85 22481 -714.02 C 21962.7 -776.02 21557.5 -936.57 21265.2 -1195.7 C 20972.9 -1454.8 20826.7 -1772.6 20826.7 -2149 C 20826.7 -2419.2 20898.8 -2654 21042.6 -2853.3 C 21186.6 -3052.6 21384.8 -3206.5 21637.2 -3315 C 21889.6 -3423.5 22179.8 -3477.8 22507.6 -3477.8 C 22751.1 -3477.8 22972.6 -3439 23171.9 -3361.5 C 23371.3 -3284 23545.1 -3182.1 23693.4 -3055.9 C 23841.8 -2929.7 23962.5 -2791.3 24055.5 -2640.7 C 24099.8 -2569.8 24114.1 -2501.2 24098.6 -2434.7 C 24083.2 -2368.3 24044.4 -2317.3 23982.3 -2281.9 C 23916 -2250.9 23848.4 -2246.5 23779.8 -2268.6 C 23711.2 -2290.8 23659.1 -2332.8 23623.6 -2394.8 C 23557.1 -2496.7 23474.1 -2593 23374.5 -2683.8 C 23274.8 -2774.6 23154.1 -2846.6 23012.4 -2899.8 C 22870.8 -2952.9 22700.2 -2981.7 22500.9 -2986.1 C 22150.9 -2986.1 21869.8 -2911.9 21657.1 -2763.6 C 21444.5 -2615.2 21338.2 -2399.3 21338.2 -2115.8 C 21338.2 -1965.2 21378.2 -1826.8 21457.8 -1700.6 C 21537.5 -1574.4 21669.3 -1465.9 21853.2 -1375 C 22037 -1284.3 22283.9 -1216.7 22593.9 -1172.4 C 23147.6 -1092.7 23558.4 -923.3 23826.2 -664.19 C 24094.3 -405.08 24228.2 -67.38 24228.2 348.96 C 24228.2 588.13 24185.1 800.71 24098.6 986.71 C 24012.2 1172.71 23890.5 1328.91 23733.3 1455.21 C 23576.1 1581.41 23392.3 1677.71 23181.9 1744.21 C 22971.4 1810.61 22746.7 1843.81 22507.6 1843.81 Z M 26866.4 1810.61 C 26507.7 1810.61 26190 1731.91 25913.1 1574.71 C 25636.4 1417.41 25419.2 1199.41 25262.1 920.31 C 25104.8 641.28 25026.1 322.39 25026.1 -36.37 C 25026.1 -399.56 25100.4 -719.56 25248.7 -996.36 C 25397.2 -1273.2 25602 -1491.3 25863.3 -1650.8 C 26124.5 -1810.2 26425.8 -1889.9 26766.8 -1889.9 C 27103.4 -1889.9 27396.9 -1813.5 27647 -1660.7 C 27897.3 -1507.9 28091.1 -1296.4 28228.4 -1026.3 C 28365.6 -756.09 28434.3 -448.27 28434.3 -102.81 C 28434.3 -31.95 28412.2 24.53 28367.9 66.61 C 28323.7 108.69 28266 129.72 28195.1 129.72 L 25371.6 129.72 L 25371.6 -295.47 L 28248.4 -295.47 L 27962.7 -89.52 C 27967 -346.41 27920.5 -576.71 27823.1 -780.45 C 27725.7 -984.19 27587.2 -1143.6 27407.9 -1258.8 C 27228.6 -1373.9 27014.8 -1431.5 26766.8 -1431.5 C 26514.3 -1431.5 26292.9 -1371.7 26102.4 -1252.1 C 25912 -1132.6 25764.7 -967.58 25660.6 -757.19 C 25556.6 -546.81 25504.5 -306.54 25504.5 -36.37 C 25504.5 233.8 25563.2 472.98 25680.5 681.15 C 25798 889.31 25958.5 1053.31 26162.2 1172.71 C 26365.9 1292.31 26600.7 1352.11 26866.4 1352.11 C 27026 1352.11 27186.4 1324.51 27348.1 1269.01 C 27509.8 1213.81 27639.3 1143.91 27736.8 1059.81 C 27785.5 1020.01 27840.8 998.91 27902.9 996.71 C 27964.9 994.51 28017.9 1011.11 28062.3 1046.61 C 28119.8 1099.61 28149.8 1157.31 28152.1 1219.21 C 28154.2 1281.31 28128.8 1334.41 28075.6 1378.61 C 27929.5 1502.71 27743.4 1605.71 27517.5 1687.71 C 27291.6 1769.61 27074.6 1810.61 26866.4 1810.61 Z M 29484.8 -461.55 C 29498.2 -736.17 29570.1 -981.98 29700.8 -1199 C 29831.4 -1416 30002 -1586.5 30212.4 -1710.6 C 30422.7 -1834.6 30656.2 -1896.6 30913.3 -1896.6 C 31116.9 -1896.6 31274.3 -1867.8 31385 -1810.2 C 31495.6 -1752.6 31537.7 -1668.5 31511.2 -1557.8 C 31493.4 -1491.3 31463.5 -1447 31421.4 -1424.9 C 31379.4 -1402.7 31328.5 -1393.9 31268.7 -1398.3 C 31208.9 -1402.7 31141.4 -1407.2 31066 -1411.6 C 30818 -1433.7 30597.6 -1408.3 30405 -1335.2 C 30212.3 -1262.1 30059.4 -1150.3 29946.5 -999.7 C 29833.7 -849.1 29777.2 -669.73 29777.2 -461.55 L 29484.8 -461.55 Z M 29524.7 1777.31 C 29445.1 1777.31 29383 1755.11 29338.6 1710.91 C 29294.4 1666.71 29272.3 1604.61 29272.3 1524.91 L 29272.3 -1604.3 C 29272.3 -1684 29294.4 -1746 29338.6 -1790.3 C 29383 -1834.6 29445.1 -1856.7 29524.7 -1856.7 C 29604.3 -1856.7 29666.5 -1834.6 29710.8 -1790.3 C 29755.2 -1746 29777.2 -1684 29777.2 -1604.3 L 29777.2 1524.91 C 29777.2 1604.61 29755.2 1666.71 29710.8 1710.91 C 29666.5 1755.11 29604.3 1777.31 29524.7 1777.31 Z M 33531.8 1777.31 C 33425.4 1777.31 33345.8 1719.81 33292.6 1604.61 L 31817.7 -1524.5 C 31791.1 -1582.1 31789 -1639.7 31811.1 -1697.3 C 31833.2 -1754.8 31877.5 -1799.1 31944 -1830.1 C 32006 -1861.1 32065.7 -1865.6 32123.4 -1843.4 C 32180.8 -1821.3 32225.2 -1781.4 32256.2 -1723.8 L 33671.3 1338.81 L 33398.9 1338.81 L 34794 -1723.8 C 34820.7 -1785.8 34866 -1826.8 34930.2 -1846.8 C 34994.5 -1866.7 35057.6 -1863.4 35119.6 -1836.8 C 35181.7 -1805.8 35223.7 -1760.4 35245.9 -1700.6 C 35267.9 -1640.8 35265.8 -1584.3 35239.1 -1531.2 L 33784.3 1604.61 C 33731.1 1719.81 33646.9 1777.31 33531.8 1777.31 Z M 36303.3 1777.31 C 36223.5 1777.31 36160.4 1754.11 36113.9 1707.61 C 36067.5 1661.01 36044.2 1598.01 36044.2 1518.21 L 36044.2 -1597.6 C 36044.2 -1677.3 36067.5 -1740.5 36113.9 -1787 C 36160.4 -1833.5 36223.5 -1856.7 36303.3 -1856.7 C 36378.5 -1856.7 36439.5 -1833.5 36486 -1787 C 36532.5 -1740.5 36555.7 -1677.3 36555.7 -1597.6 L 36555.7 1518.21 C 36555.7 1598.01 36532.5 1661.01 36486 1707.61 C 36439.5 1754.11 36378.5 1777.31 36303.3 1777.31 Z M 36296.6 -2547.7 C 36199.2 -2547.7 36115 -2583.1 36044.2 -2653.9 C 35973.3 -2724.8 35937.9 -2811.2 35937.9 -2913.1 C 35937.9 -3023.8 35974.5 -3111.2 36047.5 -3175.5 C 36120.6 -3239.7 36205.9 -3271.8 36303.3 -3271.8 C 36396.3 -3271.8 36479.3 -3239.7 36552.4 -3175.5 C 36625.5 -3111.2 36662.1 -3023.8 36662.1 -2913.1 C 36662.1 -2811.2 36626.7 -2724.8 36555.7 -2653.9 C 36484.9 -2583.1 36398.5 -2547.7 36296.6 -2547.7 Z M 39452.9 1810.61 C 39103 1810.61 38791.8 1729.71 38519.4 1568.11 C 38246.9 1406.31 38032.2 1186.11 37875.1 907.01 C 37717.8 628 37639.2 313.53 37639.2 -36.37 C 37639.2 -390.69 37714.5 -707.37 37865 -986.4 C 38015.6 -1265.4 38221.6 -1485.8 38482.9 -1647.5 C 38744.1 -1809.1 39045.4 -1889.9 39386.5 -1889.9 C 39656.6 -1889.9 39905.7 -1836.8 40133.8 -1730.5 C 40361.9 -1624.2 40562.3 -1464.8 40735 -1252.1 C 40783.8 -1199 40801.6 -1142.5 40788.2 -1082.7 C 40774.9 -1022.9 40737.3 -970.9 40675.3 -926.61 C 40626.6 -891.18 40572.4 -879 40512.5 -890.07 C 40452.8 -901.14 40400.8 -933.26 40356.5 -986.4 C 40099.4 -1278.7 39776.2 -1424.9 39386.5 -1424.9 C 39138.4 -1424.9 38920.3 -1365.1 38732.1 -1245.5 C 38543.9 -1125.9 38397.7 -962.04 38293.5 -753.88 C 38189.5 -545.72 38137.4 -306.54 38137.4 -36.37 C 38137.4 229.38 38192.8 466.33 38303.4 674.49 C 38414.3 882.71 38569.2 1046.61 38768.6 1166.21 C 38967.8 1285.71 39195.9 1345.51 39452.9 1345.51 C 39625.6 1345.51 39784 1322.21 39927.8 1275.71 C 40071.8 1229.11 40199.2 1157.31 40309.9 1059.81 C 40363.1 1015.61 40418.4 991.21 40476.1 986.71 C 40533.6 982.31 40586.6 1000.01 40635.5 1039.91 C 40688.5 1088.61 40718.4 1143.91 40725.1 1206.11 C 40731.8 1268.11 40710.8 1321.01 40662 1365.41 C 40338.7 1662.21 39935.6 1810.61 39452.9 1810.61 Z M 43406.7 1810.61 C 43048.1 1810.61 42730.2 1731.91 42453.5 1574.71 C 42176.6 1417.41 41959.6 1199.41 41802.3 920.31 C 41645 641.28 41566.5 322.39 41566.5 -36.37 C 41566.5 -399.56 41640.7 -719.56 41789 -996.36 C 41937.5 -1273.2 42142.3 -1491.3 42403.6 -1650.8 C 42664.9 -1810.2 42966 -1889.9 43307.1 -1889.9 C 43643.7 -1889.9 43937.2 -1813.5 44187.4 -1660.7 C 44437.5 -1507.9 44631.5 -1296.4 44768.7 -1026.3 C 44906.1 -756.09 44974.6 -448.27 44974.6 -102.81 C 44974.6 -31.95 44952.5 24.53 44908.2 66.61 C 44863.9 108.69 44806.3 129.72 44735.5 129.72 L 41912 129.72 L 41912 -295.47 L 44788.6 -295.47 L 44503 -89.52 C 44507.4 -346.41 44460.8 -576.71 44363.5 -780.45 C 44266.1 -984.19 44127.6 -1143.6 43948.2 -1258.8 C 43768.9 -1373.9 43555.1 -1431.5 43307.1 -1431.5 C 43054.6 -1431.5 42833.2 -1371.7 42642.7 -1252.1 C 42452.3 -1132.6 42305 -967.58 42201 -757.19 C 42096.9 -546.81 42044.9 -306.54 42044.9 -36.37 C 42044.9 233.8 42103.6 472.98 42220.8 681.15 C 42338.3 889.31 42498.9 1053.31 42702.5 1172.71 C 42906.3 1292.31 43141 1352.11 43406.7 1352.11 C 43566.2 1352.11 43726.7 1324.51 43888.4 1269.01 C 44050 1213.81 44179.6 1143.91 44277.1 1059.81 C 44325.8 1020.01 44381.2 998.91 44443.2 996.71 C 44505.2 994.51 44558.3 1011.11 44602.6 1046.61 C 44660.2 1099.61 44690 1157.31 44692.3 1219.21 C 44694.5 1281.31 44669.1 1334.41 44615.9 1378.61 C 44469.8 1502.71 44283.6 1605.71 44057.9 1687.71 C 43831.9 1769.61 43615 1810.61 43406.7 1810.61 Z" style="stroke-linecap: round; stroke-miterlimit: 1; stroke-width: 14px"/>
    <g style="" transform="matrix(0.734172, 0, 0, 0.734172, 1207.798846, -9081.455213)">
      <path style="fill: rgb(216, 216, 216); stroke: rgb(0, 0, 0); stroke-width: 400px;" d="M 83.92 5239.74 C 308.357 5238.69 8004.33 5238.64 8015.04 5237.87 C 8284.84 5218.51 8402.43 5410.71 8387.09 5578.06 C 8378 5677.26 8368.68 9843.41 8365.53 9882.46 C 8341.84 10176.3 8256.59 10245.6 8009.9 10240.7 C 7950.98 10239.6 392.455 10244.3 317.912 10240.7 C -72.688 10222.1 -273.91 9996.75 -265.73 9799.41 C -260.67 9676.39 -280.74 5754.26 -257.97 5573.37 C -238.32 5417.65 -75.302 5240.49 83.92 5239.74 Z"/>
      <text style="fill: rgb(51, 51, 51); font-family: Calibri; font-size: 28.3934px; letter-spacing: 0.9px; line-height: 44.847px; white-space: pre;" transform="matrix(115.488174, 0, 0, 115.837433, 11762.534355, -848480.012643)" x="-94.152" y="7401.5">47,5</text>
    </g>
  </g>
</svg>
