<svg xmlns="http://www.w3.org/2000/svg" viewBox="-1000 4000 45000 7500" width="35000" height="6100" xmlns:bx="https://boxy-svg.com">
  <defs></defs>
  <g transform="matrix(1, 0, 0, 1, 0, 524.1110155653475)">
    <path d="M 11876.803 9005.883 L 11632.586 8740.882 L 13409.653 7135.287 Q 13472.006 7078.13 13539.555 7080.728 Q 13607.105 7083.326 13664.262 7145.679 Q 13721.419 7208.033 13718.821 7278.18 Q 13716.223 7348.327 13653.869 7400.288 Z M 11746.901 9956.77 Q 11658.567 9956.77 11604.008 9902.21 Q 11549.449 9847.651 11549.449 9759.318 L 11549.449 6096.067 Q 11549.449 6007.733 11604.008 5953.174 Q 11658.567 5898.615 11746.901 5898.615 Q 11835.234 5898.615 11889.793 5953.174 Q 11944.352 6007.733 11944.352 6096.067 L 11944.352 9759.318 Q 11944.352 9847.651 11889.793 9902.21 Q 11835.234 9956.77 11746.901 9956.77 Z M 13669.458 9930.789 Q 13601.908 9987.946 13529.163 9980.152 Q 13456.418 9972.358 13404.457 9904.809 L 12245.726 8481.077 L 12526.316 8231.664 L 13695.438 9670.984 Q 13747.399 9733.337 13742.203 9803.485 Q 13737.007 9873.632 13669.458 9930.789 Z M 18340.925 9956.77 Q 18252.592 9956.77 18195.435 9902.21 Q 18138.278 9847.651 18138.278 9759.318 L 18138.278 8262.841 Q 18138.278 7893.918 17946.022 7678.28 Q 17753.766 7462.641 17452.392 7462.641 Q 17130.234 7462.641 16924.988 7678.28 Q 16719.742 7893.918 16724.938 8252.449 L 16366.407 8252.449 Q 16371.604 7904.31 16517.094 7639.309 Q 16662.585 7374.308 16917.194 7228.817 Q 17171.803 7083.326 17493.961 7083.326 Q 17800.531 7083.326 18036.954 7228.817 Q 18273.376 7374.308 18405.877 7639.309 Q 18538.377 7904.31 18538.377 8262.841 L 18538.377 9759.318 Q 18538.377 9847.651 18483.818 9902.21 Q 18429.259 9956.77 18340.925 9956.77 Z M 14703.655 9956.77 Q 14610.126 9956.77 14555.566 9902.21 Q 14501.007 9847.651 14501.007 9759.318 L 14501.007 7317.151 Q 14501.007 7228.817 14555.566 7171.66 Q 14610.126 7114.503 14703.655 7114.503 Q 14791.989 7114.503 14846.548 7171.66 Q 14901.107 7228.817 14901.107 7317.151 L 14901.107 9759.318 Q 14901.107 9847.651 14846.548 9902.21 Q 14791.989 9956.77 14703.655 9956.77 Z M 16527.487 9956.77 Q 16439.153 9956.77 16381.996 9902.21 Q 16324.839 9847.651 16324.839 9759.318 L 16324.839 8262.841 Q 16324.839 7893.918 16132.583 7678.28 Q 15940.327 7462.641 15638.953 7462.641 Q 15316.795 7462.641 15108.951 7673.083 Q 14901.107 7883.526 14901.107 8221.272 L 14615.322 8221.272 Q 14625.714 7888.722 14763.41 7631.515 Q 14901.107 7374.308 15140.128 7228.817 Q 15379.148 7083.326 15680.522 7083.326 Q 15987.092 7083.326 16223.515 7228.817 Q 16459.937 7374.308 16592.438 7639.309 Q 16724.938 7904.31 16724.938 8262.841 L 16724.938 9759.318 Q 16724.938 9847.651 16670.379 9902.21 Q 16615.82 9956.77 16527.487 9956.77 Z M 19401.282 7753.623 Q 19276.575 7753.623 19185.644 7667.887 Q 19094.712 7582.152 19094.712 7452.249 Q 19094.712 7322.347 19183.046 7234.013 Q 19271.379 7145.679 19401.282 7145.679 Q 19525.988 7145.679 19611.724 7236.611 Q 19697.46 7327.543 19697.46 7452.249 Q 19697.46 7576.956 19611.724 7665.289 Q 19525.988 7753.623 19401.282 7753.623 Z M 19411.674 10039.907 Q 19286.968 10039.907 19198.634 9951.573 Q 19110.3 9863.24 19110.3 9738.533 Q 19110.3 9608.631 19201.232 9520.297 Q 19292.164 9431.963 19411.674 9431.963 Q 19536.38 9431.963 19624.714 9522.895 Q 19713.048 9613.827 19713.048 9738.533 Q 19713.048 9858.044 19627.312 9948.975 Q 19541.577 10039.907 19411.674 10039.907 Z M 21693.348 10008.731 Q 21360.797 10008.731 21077.61 9912.603 Q 20794.423 9816.475 20586.579 9639.807 Q 20378.735 9463.14 20269.616 9229.315 Q 20228.048 9146.178 20267.018 9076.031 Q 20305.989 9005.883 20399.519 8979.903 Q 20472.264 8959.118 20542.412 8995.491 Q 20612.559 9031.864 20648.932 9104.609 Q 20726.873 9255.296 20877.56 9374.806 Q 21028.247 9494.317 21236.091 9559.268 Q 21443.935 9624.219 21693.348 9624.219 Q 21968.741 9624.219 22181.781 9533.287 Q 22394.821 9442.356 22516.93 9268.286 Q 22639.038 9094.217 22639.038 8844.804 Q 22639.038 8527.842 22405.214 8299.214 Q 22171.389 8070.585 21672.564 8008.232 Q 21064.62 7935.487 20721.677 7631.515 Q 20378.735 7327.543 20378.735 6885.874 Q 20378.735 6568.912 20547.608 6335.088 Q 20716.481 6101.263 21012.659 5973.959 Q 21308.836 5846.654 21693.348 5846.654 Q 21979.133 5846.654 22212.958 5937.586 Q 22446.782 6028.518 22620.852 6176.607 Q 22794.921 6324.695 22904.039 6501.363 Q 22956 6584.5 22937.814 6662.442 Q 22919.628 6740.383 22846.882 6781.952 Q 22768.941 6818.325 22688.401 6792.344 Q 22607.862 6766.364 22566.293 6693.619 Q 22488.351 6574.108 22371.439 6467.588 Q 22254.527 6361.068 22088.252 6298.715 Q 21921.976 6236.362 21688.152 6231.166 Q 21277.66 6231.166 21028.247 6405.235 Q 20778.834 6579.304 20778.834 6911.855 Q 20778.834 7088.522 20872.364 7236.611 Q 20965.894 7384.7 21181.532 7491.22 Q 21397.17 7597.74 21760.897 7649.701 Q 22410.41 7743.231 22724.774 8047.203 Q 23039.138 8351.175 23039.138 8839.608 Q 23039.138 9120.197 22937.814 9338.434 Q 22836.49 9556.67 22652.028 9704.759 Q 22467.567 9852.848 22220.752 9930.789 Q 21973.937 10008.731 21693.348 10008.731 Z M 25102.549 9982.75 Q 24681.665 9982.75 24356.909 9798.288 Q 24032.153 9613.827 23847.691 9286.473 Q 23663.23 8959.118 23663.23 8538.234 Q 23663.23 8112.154 23837.299 7787.398 Q 24011.368 7462.641 24317.938 7275.582 Q 24624.508 7088.522 25024.608 7088.522 Q 25419.512 7088.522 25713.091 7267.788 Q 26006.671 7447.053 26167.75 7764.015 Q 26328.829 8080.977 26328.829 8486.273 Q 26328.829 8569.411 26276.868 8618.774 Q 26224.907 8668.137 26141.77 8668.137 L 23933.427 8668.137 L 23933.427 8335.586 L 26183.338 8335.586 L 25959.906 8496.665 Q 25965.102 8195.292 25850.788 7956.271 Q 25736.474 7717.25 25526.032 7582.152 Q 25315.59 7447.053 25024.608 7447.053 Q 24728.43 7447.053 24504.998 7587.348 Q 24281.566 7727.643 24159.457 7974.457 Q 24037.349 8221.272 24037.349 8538.234 Q 24037.349 8855.196 24175.046 9099.413 Q 24312.742 9343.63 24551.763 9483.924 Q 24790.783 9624.219 25102.549 9624.219 Q 25289.609 9624.219 25479.267 9559.268 Q 25668.924 9494.317 25783.239 9395.591 Q 25840.396 9348.826 25913.141 9346.228 Q 25985.886 9343.63 26037.847 9385.199 Q 26105.397 9447.552 26107.995 9520.297 Q 26110.593 9593.043 26048.24 9645.004 Q 25876.768 9790.494 25611.767 9886.622 Q 25346.766 9982.75 25102.549 9982.75 Z M 27150.454 8205.684 Q 27166.042 7883.526 27319.327 7628.917 Q 27472.612 7374.308 27719.427 7228.817 Q 27966.241 7083.326 28267.615 7083.326 Q 28506.636 7083.326 28636.538 7150.875 Q 28766.441 7218.425 28735.264 7348.327 Q 28714.48 7426.269 28665.117 7452.249 Q 28615.754 7478.23 28545.606 7473.034 Q 28475.459 7467.838 28387.125 7462.641 Q 28096.144 7436.661 27870.113 7522.397 Q 27644.083 7608.132 27511.582 7784.8 Q 27379.082 7961.467 27379.082 8205.684 Z M 27181.63 9956.77 Q 27088.1 9956.77 27036.139 9904.809 Q 26984.178 9852.848 26984.178 9759.318 L 26984.178 7311.955 Q 26984.178 7218.425 27036.139 7166.464 Q 27088.1 7114.503 27181.63 7114.503 Q 27275.16 7114.503 27327.121 7166.464 Q 27379.082 7218.425 27379.082 7311.955 L 27379.082 9759.318 Q 27379.082 9852.848 27327.121 9904.809 Q 27275.16 9956.77 27181.63 9956.77 Z M 30315.626 9956.77 Q 30190.92 9956.77 30128.567 9821.671 L 28975.033 7374.308 Q 28943.856 7306.758 28969.836 7239.209 Q 28995.817 7171.66 29073.758 7135.287 Q 29146.504 7098.914 29214.053 7124.895 Q 29281.602 7150.875 29317.975 7218.425 L 30424.745 9613.827 L 30211.704 9613.827 L 31302.885 7218.425 Q 31334.062 7145.679 31409.406 7122.297 Q 31484.749 7098.914 31557.494 7130.091 Q 31630.24 7166.464 31656.22 7236.611 Q 31682.201 7306.758 31651.024 7369.112 L 30513.078 9821.671 Q 30450.725 9956.77 30315.626 9956.77 Z M 32483.282 9956.77 Q 32389.752 9956.77 32335.193 9902.21 Q 32280.634 9847.651 32280.634 9754.122 L 32280.634 7317.151 Q 32280.634 7223.621 32335.193 7169.062 Q 32389.752 7114.503 32483.282 7114.503 Q 32571.616 7114.503 32626.175 7169.062 Q 32680.734 7223.621 32680.734 7317.151 L 32680.734 9754.122 Q 32680.734 9847.651 32626.175 9902.21 Q 32571.616 9956.77 32483.282 9956.77 Z M 32478.086 6574.108 Q 32363.772 6574.108 32280.634 6490.971 Q 32197.497 6407.833 32197.497 6288.323 Q 32197.497 6158.42 32283.232 6083.077 Q 32368.968 6007.733 32483.282 6007.733 Q 32592.4 6007.733 32678.136 6083.077 Q 32763.872 6158.42 32763.872 6288.323 Q 32763.872 6407.833 32680.734 6490.971 Q 32597.596 6574.108 32478.086 6574.108 Z M 34946.638 9982.75 Q 34536.146 9982.75 34216.586 9793.092 Q 33897.026 9603.435 33712.564 9276.08 Q 33528.103 8948.726 33528.103 8538.234 Q 33528.103 8122.546 33704.77 7795.192 Q 33881.438 7467.838 34188.007 7278.18 Q 34494.577 7088.522 34894.677 7088.522 Q 35211.639 7088.522 35479.238 7213.229 Q 35746.838 7337.935 35949.485 7587.348 Q 36006.643 7649.701 35991.054 7719.848 Q 35975.466 7789.996 35902.721 7841.957 Q 35845.563 7883.526 35775.416 7870.535 Q 35705.269 7857.545 35653.308 7795.192 Q 35351.934 7452.249 34894.677 7452.249 Q 34603.695 7452.249 34382.861 7592.544 Q 34162.027 7732.839 34039.919 7977.055 Q 33917.81 8221.272 33917.81 8538.234 Q 33917.81 8850 34047.713 9094.217 Q 34177.615 9338.434 34411.44 9478.728 Q 34645.264 9619.023 34946.638 9619.023 Q 35149.286 9619.023 35318.159 9564.464 Q 35487.033 9509.905 35616.935 9395.591 Q 35679.288 9343.63 35746.838 9338.434 Q 35814.387 9333.238 35871.544 9380.002 Q 35933.897 9437.16 35941.691 9509.905 Q 35949.485 9582.65 35892.328 9634.611 Q 35513.013 9982.75 34946.638 9982.75 Z M 38039.051 9982.75 Q 37618.167 9982.75 37293.411 9798.288 Q 36968.655 9613.827 36784.193 9286.473 Q 36599.732 8959.118 36599.732 8538.234 Q 36599.732 8112.154 36773.801 7787.398 Q 36947.87 7462.641 37254.44 7275.582 Q 37561.01 7088.522 37961.11 7088.522 Q 38356.014 7088.522 38649.593 7267.788 Q 38943.173 7447.053 39104.252 7764.015 Q 39265.331 8080.977 39265.331 8486.273 Q 39265.331 8569.411 39213.37 8618.774 Q 39161.409 8668.137 39078.271 8668.137 L 36869.929 8668.137 L 36869.929 8335.586 L 39119.84 8335.586 L 38896.408 8496.665 Q 38901.604 8195.292 38787.29 7956.271 Q 38672.976 7717.25 38462.534 7582.152 Q 38252.092 7447.053 37961.11 7447.053 Q 37664.932 7447.053 37441.5 7587.348 Q 37218.068 7727.643 37095.959 7974.457 Q 36973.851 8221.272 36973.851 8538.234 Q 36973.851 8855.196 37111.548 9099.413 Q 37249.244 9343.63 37488.265 9483.924 Q 37727.285 9624.219 38039.051 9624.219 Q 38226.111 9624.219 38415.769 9559.268 Q 38605.426 9494.317 38719.741 9395.591 Q 38776.898 9348.826 38849.643 9346.228 Q 38922.388 9343.63 38974.349 9385.199 Q 39041.899 9447.552 39044.497 9520.297 Q 39047.095 9593.043 38984.742 9645.004 Q 38813.27 9790.494 38548.269 9886.622 Q 38283.268 9982.75 38039.051 9982.75 Z"  style="stroke-linecap: round; stroke-miterlimit: 1; stroke-width: 14px; fill: rgb(255, 255, 255);"></path>
    <path style="fill: rgb(216, 216, 216); stroke: rgb(0, 0, 0); stroke-width: 400px;" d="M 149.498 4310.48 C 415.628 4309.23 9541.25 4309.17 9553.95 4308.26 C 9873.87 4285.3 10013.3 4513.21 9995.11 4711.64 C 9984.33 4829.27 9973.28 9769.35 9969.55 9815.65 C 9941.46 10164.1 9840.37 10246.3 9547.85 10240.5 C 9477.99 10239.1 515.348 10244.7 426.958 10240.5 C -36.202 10218.4 -274.8 9951.18 -265.1 9717.18 C -259.1 9571.3 -282.9 4920.57 -255.9 4706.08 C -232.6 4521.44 -39.302 4311.36 149.498 4310.48 Z"></path>
    <text style="fill: rgb(51, 51, 51); font-family: Calibri; font-size: 28.3934px; letter-spacing: 0.9px; line-height: 44.847px; white-space: pre;" transform="matrix(136.941895, 0, 0, 137.356033, 13997.595912, -1008000.95252)" x="-94.152" y="7401.5">47,5</text>
  </g>
</svg>
