<svg xmlns="http://www.w3.org/2000/svg" viewBox="-1000 4000 45000 7500" width="35000" height="6100">
<!--  <defs>-->
<!--    <style bx:fonts="Comfortaa">@import url(https://fonts.googleapis.com/css2?family=Comfortaa%3Aital%2Cwght%400%2C300..700&amp;display=swap);</style>-->
<!--  </defs>-->
  <g transform="matrix(.86223 0 0 .723 1777.898 -5287.188)">
    <path style="stroke:#000;fill:none;stroke-width:250px" d="m1191.386 21863.889 5776.804-1034.653-3147.064-1034.652"/>
    <circle transform="matrix(53.8881 0 0 30.5851 -10663.995 -5261.898)" cx="322.8" cy="858" r="14.8"/>
    <circle transform="matrix(44.15237 0 0 25.05943 -10265.008 -1612.24)" cx="322.8" cy="858" r="14.8"/>
    <circle transform="matrix(61.30573 0 0 34.79511 -18369.387 -7932.128)" cx="322.8" cy="858" r="14.8"/>
  </g>
  <g>
    <path d="M197.849 0C122.131 0 60.531 61.609 60.531 137.329c0 72.887 124.591 243.177 129.896 250.388l4.951 6.738a3.064 3.064 0 0 0 2.471 1.255 3.08 3.08 0 0 0 2.486-1.255l4.948-6.738c5.308-7.211 129.896-177.501 129.896-250.388C335.179 61.609 273.569 0 197.849 0zm0 88.138c27.13 0 49.191 22.062 49.191 49.191 0 27.115-22.062 49.191-49.191 49.191-27.114 0-49.191-22.076-49.191-49.191 0-27.129 22.076-49.191 49.191-49.191z" style="fill:#5b5b5b" transform="matrix(6.96511 0 0 6.96511 6318.733 7140.036)"/>
  </g>
  <path d="m9956.35 9775.86-312.17-338.83 2272.02-2052.88c53.1-48.71 108.5-71.99 166.1-69.76 57.6 2.21 110.7 29.9 159.4 83.04 48.8 53.16 72 109.63 69.7 169.41-2.2 59.8-29.9 111.85-82.9 156.14L9956.35 9775.86Zm-166.08 1215.74c-75.31 0-136.2-23.2-182.67-69.7-46.56-46.6-69.88-107.5-69.88-182.7V6055.43c0-75.29 23.32-136.2 69.88-182.71 46.47-46.49 107.36-69.76 182.67-69.76 75.31 0 136.11 23.27 182.67 69.76 46.46 46.51 69.86 107.42 69.86 182.71v4683.77c0 75.2-23.4 136.1-69.86 182.7-46.56 46.5-107.36 69.7-182.67 69.7Zm2458.03-33.1c-57.5 48.6-117.3 69.7-179.3 62.9-62.1-6.5-115.2-38.6-159.5-96.2L10428 9104.85l358.7-318.9 1494.8 1840.25c44.4 53.2 64.3 109.6 59.9 169.5-4.4 59.7-35.5 114-93.1 162.8Zm5972.9 33.1c-75.3 0-137.3-23.2-185.9-69.7-48.8-46.6-73.1-107.5-73.1-182.7V8825.8c0-314.45-81.9-563.58-245.9-747.39-163.9-183.81-374.2-275.71-631.1-275.71-274.5 0-499.4 91.9-674.5 275.71-174.9 183.81-260.1 428.51-255.6 734.11h-458.5c4.5-296.75 68.6-558.06 192.7-783.94 124-225.88 294.6-400.84 511.5-524.85 217-124.01 462.9-186 737.5-186 261.4 0 492.8 61.99 694.3 186 201.5 124.01 358.7 298.97 471.6 524.85 113 225.88 169.5 491.62 169.5 797.22v1913.4c0 75.2-23.3 136.1-69.9 182.7-46.4 46.5-107.3 69.7-182.6 69.7Zm-4650.6 0c-79.7 0-142.8-23.2-189.3-69.7-46.6-46.6-69.7-107.5-69.7-182.7V7616.68c0-75.31 23.1-137.31 69.7-186.03 46.5-48.72 109.6-73.08 189.3-73.08 75.4 0 136.2 24.36 182.7 73.08 46.6 48.72 69.8 110.72 69.8 186.03v3122.52c0 75.2-23.2 136.1-69.8 182.7-46.5 46.5-107.3 69.7-182.7 69.7Zm2331.9 0c-75.2 0-137.3-23.2-186-69.7-48.7-46.6-72.9-107.5-72.9-182.7V8825.8c0-314.45-82.1-563.58-245.9-747.39-163.9-183.81-374.3-275.71-631.1-275.71-274.7 0-500.4 89.68-677.6 269.07-177.2 179.36-265.9 413-265.9 700.88h-365.4c8.9-283.45 72-534.8 189.4-754.04 117.2-219.23 277.9-390.87 481.7-514.88 203.7-124.01 434-186 690.9-186 261.3 0 492.8 61.99 694.2 186 201.5 124.01 358.8 298.97 471.7 524.85 113.1 225.88 169.5 491.62 169.5 797.22v1913.4c0 75.2-23.4 136.1-69.9 182.7-46.4 46.5-107.4 69.7-182.7 69.7ZM19577 8174.74c-106.4 0-198.3-36.54-275.8-109.62-77.5-73.09-116.2-164.99-116.2-275.71 0-110.72 37.6-203.75 112.9-279.04 75.3-75.3 168.4-112.94 279.1-112.94 106.3 0 195.9 38.76 269 116.27 73.2 77.51 109.6 169.4 109.6 275.71 0 106.31-36.4 197.09-109.6 272.38-73.1 75.3-162.7 112.95-269 112.95Zm13.2 2923.26c-106.3 0-197.1-37.7-272.4-113-75.3-75.3-112.9-166.1-112.9-272.4 0-110.7 38.9-203.7 116.2-279.1 77.5-75.3 167.2-112.9 269.1-112.9 106.4 0 197.2 38.8 272.4 116.3 75.4 77.5 113 169.4 113 275.7 0 101.8-36.6 191.6-109.7 269-73 77.6-164.9 116.4-275.7 116.4Zm2917.4-39.9c-283.5 0-545.9-41-787.4-123-241.4-81.8-450.5-198.1-627.7-348.8-177.2-150.5-312.3-325.4-405.3-524.8-35.5-70.85-36.6-136.17-3.3-195.97 33.2-59.79 89.7-100.75 169.4-122.9 62-17.72 122.9-11.06 182.7 19.93 59.8 31.01 105.1 77.5 136.2 139.52 66.4 128.42 163.8 243.62 292.4 345.52 128.4 101.8 281.1 180.5 458.3 235.7 177.2 55.5 372.1 83.1 584.7 83.1 234.6 0 442.8-38.7 624.4-116.2 181.7-77.5 324.6-190.6 428.5-338.8 104.2-148.43 156.2-328.91 156.2-541.5 0-270.18-99.7-502.7-299.1-697.58-199.3-194.87-511.4-318.88-936.6-372.05-518.3-62-923.5-222.55-1215.8-481.66-292.3-259.1-438.5-576.88-438.5-953.35 0-270.17 72.1-504.93 215.9-704.22 144-199.32 342.2-353.23 594.6-461.74 252.4-108.51 542.6-162.77 870.4-162.77 243.5 0 465 38.75 664.3 116.26 199.4 77.51 373.2 179.39 521.5 305.62 148.4 126.22 269.1 264.63 362.1 415.22 44.3 70.86 58.6 139.51 43.1 205.94-15.4 66.44-54.2 117.37-116.3 152.81-66.3 31.01-133.9 35.43-202.5 13.28-68.6-22.14-120.7-64.21-156.2-126.22-66.5-101.87-149.5-198.19-249.1-289-99.7-90.79-220.4-162.76-362.1-215.92-141.6-53.15-312.2-81.93-511.5-86.37-350 0-631.1 74.2-843.8 222.57-212.6 148.37-318.9 364.3-318.9 647.75 0 150.59 40 289 119.6 415.23 79.7 126.23 211.5 234.73 395.4 325.54 183.8 90.79 430.7 158.33 740.7 202.62 553.7 79.73 964.5 249.13 1232.3 508.24 268.1 259.11 402 596.81 402 1013.15 0 239.17-43.1 451.75-129.6 637.75-86.4 186-208.1 342.2-365.3 468.5-157.2 126.2-341 222.5-551.4 289-210.5 66.4-435.2 99.6-674.3 99.6Zm4358.8-33.2c-358.7 0-676.4-78.7-953.3-235.9-276.7-157.3-493.9-375.3-651-654.4-157.3-279.03-236-597.92-236-956.68 0-363.19 74.3-683.19 222.6-959.99 148.5-276.83 353.3-494.95 614.6-654.4 261.2-159.46 562.5-239.17 903.5-239.17 336.6 0 630.1 76.4 880.2 229.2 250.3 152.81 444.1 364.3 581.4 634.47 137.2 270.17 205.9 577.99 205.9 923.45 0 70.86-22.1 127.34-66.4 169.42-44.2 42.08-101.9 63.11-172.8 63.11h-2823.5v-425.19h2876.8l-285.7 205.95c4.3-256.89-42.2-487.19-139.6-690.93-97.4-203.74-235.9-363.19-415.2-478.34-179.3-115.15-393.1-172.73-641.1-172.73-252.5 0-473.9 59.79-664.4 179.38-190.4 119.58-337.7 284.56-441.8 494.95-104 210.38-156.1 450.65-156.1 720.82 0 270.17 58.7 509.35 176 717.52 117.5 208.16 278 372.16 481.7 491.56 203.7 119.6 438.5 179.4 704.2 179.4 159.6 0 320-27.6 481.7-83.1 161.7-55.2 291.2-125.1 388.7-209.2 48.7-39.8 104-60.9 166.1-63.1 62-2.2 115 14.4 159.4 49.9 57.5 53 87.5 110.7 89.8 172.6 2.1 62.1-23.3 115.2-76.5 159.4-146.1 124.1-332.2 227.1-558.1 309.1-225.9 81.9-442.9 122.9-651.1 122.9Zm2618.4-2272.16c13.4-274.62 85.3-520.43 216-737.46 130.6-217.01 301.2-387.54 511.6-511.55 210.3-124.01 443.8-186 700.9-186 203.6 0 361 28.77 471.7 86.34 110.6 57.58 152.7 141.74 126.2 252.46-17.8 66.45-47.7 110.73-89.8 132.88-42 22.15-92.9 31.01-152.7 26.57-59.8-4.42-127.3-8.85-202.7-13.28-248-22.15-468.4 3.31-661 76.41-192.7 73.07-345.6 184.89-458.5 335.49-112.8 150.59-169.3 329.96-169.3 538.14h-292.4Zm39.9 2238.86c-79.6 0-141.7-22.2-186.1-66.4-44.2-44.2-66.3-106.3-66.3-186V7610.03c0-79.73 22.1-141.73 66.3-186.03 44.4-44.28 106.5-66.43 186.1-66.43s141.8 22.15 186.1 66.43c44.4 44.3 66.4 106.3 66.4 186.03v3129.17c0 79.7-22 141.8-66.4 186-44.3 44.2-106.5 66.4-186.1 66.4Zm4007.1 0c-106.4 0-186-57.5-239.2-172.7l-1474.9-3129.15c-26.6-57.57-28.7-115.15-6.6-172.73 22.1-57.58 66.4-101.87 132.9-132.87 62-31 121.7-35.44 179.4-13.29 57.4 22.15 101.8 62 132.8 119.59l1415.1 3062.65h-272.4L34794 7490.45c26.7-62.01 72-102.98 136.2-122.92 64.3-19.92 127.4-16.61 189.4 9.97 62.1 31 104.1 76.4 126.3 136.2 22 59.79 19.9 116.26-6.8 169.4l-1454.8 3135.8c-53.2 115.2-137.4 172.7-252.5 172.7Zm2771.5 0c-79.8 0-142.9-23.2-189.4-69.7-46.4-46.6-69.7-109.6-69.7-189.4V7616.68c0-79.73 23.3-142.85 69.7-189.35 46.5-46.51 109.6-69.76 189.4-69.76 75.2 0 136.2 23.25 182.7 69.76 46.5 46.5 69.7 109.62 69.7 189.35v3115.82c0 79.8-23.2 142.8-69.7 189.4-46.5 46.5-107.5 69.7-182.7 69.7Zm-6.7-4324.97c-97.4 0-181.6-35.43-252.4-106.28-70.9-70.88-106.3-157.24-106.3-259.11 0-110.74 36.6-198.19 109.6-262.42 73.1-64.23 158.4-96.35 255.8-96.35 93 0 176 32.12 249.1 96.35 73.1 64.23 109.7 151.68 109.7 262.42 0 101.87-35.4 188.23-106.4 259.11-70.8 70.85-157.2 106.28-259.1 106.28Zm3156.3 4358.27c-349.9 0-661.1-80.9-933.5-242.5-272.5-161.8-487.2-382-644.3-661.1-157.3-279.01-235.9-593.48-235.9-943.38 0-354.32 75.3-671 225.8-950.03 150.6-279.04 356.6-499.37 617.9-661.05 261.2-161.66 562.5-242.48 903.6-242.48 270.1 0 519.2 53.14 747.3 159.44 228.1 106.3 428.5 265.74 601.2 478.35 48.8 53.13 66.6 109.62 53.2 169.4-13.3 59.81-50.9 111.84-112.9 156.13-48.7 35.43-102.9 47.61-162.8 36.54-59.7-11.07-111.7-43.19-156-96.33-257.1-292.32-580.3-438.48-970-438.48-248.1 0-466.2 59.79-654.4 179.37-188.2 119.59-334.4 283.47-438.6 491.63-104 208.16-156.1 447.34-156.1 717.51 0 265.75 55.4 502.7 166 710.86 110.9 208.22 265.8 372.12 465.2 491.72 199.2 119.5 427.3 179.3 684.3 179.3 172.7 0 331.1-23.3 474.9-69.8 144-46.6 271.4-118.4 382.1-215.9 53.2-44.2 108.5-68.6 166.2-73.1 57.5-4.4 110.5 13.3 159.4 53.2 53 48.7 82.9 104 89.6 166.2 6.7 62-14.3 114.9-63.1 159.3-323.3 296.8-726.4 445.2-1209.1 445.2Zm3953.8 0c-358.6 0-676.5-78.7-953.2-235.9-276.9-157.3-493.9-375.3-651.2-654.4-157.3-279.03-235.8-597.92-235.8-956.68 0-363.19 74.2-683.19 222.5-959.99 148.5-276.83 353.3-494.95 614.6-654.4 261.3-159.46 562.4-239.17 903.5-239.17 336.6 0 630.1 76.4 880.3 229.2 250.1 152.81 444.1 364.3 581.3 634.47 137.4 270.17 205.9 577.99 205.9 923.45 0 70.86-22.1 127.34-66.4 169.42-44.3 42.08-101.9 63.11-172.7 63.11H41912v-425.19h2876.6l-285.6 205.95c4.4-256.89-42.2-487.19-139.5-690.93-97.4-203.74-235.9-363.19-415.3-478.34-179.3-115.15-393.1-172.73-641.1-172.73-252.5 0-473.9 59.79-664.4 179.38-190.4 119.58-337.7 284.56-441.7 494.95-104.1 210.38-156.1 450.65-156.1 720.82 0 270.17 58.7 509.35 175.9 717.52 117.5 208.16 278.1 372.16 481.7 491.56 203.8 119.6 438.5 179.4 704.2 179.4 159.5 0 320-27.6 481.7-83.1 161.6-55.2 291.2-125.1 388.7-209.2 48.7-39.8 104.1-60.9 166.1-63.1 62-2.2 115.1 14.4 159.4 49.9 57.6 53 87.4 110.7 89.7 172.6 2.2 62.1-23.2 115.2-76.4 159.4-146.1 124.1-332.3 227.1-558 309.1-226 81.9-442.9 122.9-651.2 122.9Z" style="stroke-linecap:round;stroke-miterlimit:1;stroke-width:14px;fill:#fff" transform="translate(0 -861.324)"/>
  <g>
    <path style="fill:#d8d8d8;stroke:#000;stroke-width:400px" d="M83.92 5239.74c224.437-1.05 7920.41-1.1 7931.12-1.87 269.8-19.36 387.39 172.84 372.05 340.19-9.09 99.2-18.41 4265.35-21.56 4304.4-23.69 293.84-108.94 363.14-355.63 358.24-58.92-1.1-7617.445 3.6-7691.988 0-390.6-18.6-591.822-243.95-583.642-441.29 5.06-123.02-15.01-4045.15 7.76-4226.04 19.65-155.72 182.668-332.88 341.89-333.63Z" transform="translate(2536.683 1097.776) scale(.61921)"/>
    <text style="fill:#333;font-family:Calibri;font-size:28.3934px;letter-spacing:.9px;line-height:44.847px;white-space:pre" transform="matrix(71.51166 0 0 71.72793 9820.186 -524291.23)" x="-94.152" y="7401.5">47,5</text>
  </g>
</svg>
